<svg xmlns="http://www.w3.org/2000/svg" width="103" height="47" viewBox="0 0 103 47"><defs><clipPath id="ymy5a"><path d="M73.336 2.687a2360.635 2360.635 0 0 0 23.728 13.922c7.936 4.594 7.936 9.188 0 13.782a2355.012 2355.012 0 0 0-23.728 13.922C65.453 49 61.537 46.703 61.59 37.422c.053-9.281.053-18.563 0-27.844C61.537.298 65.453-2 73.336 2.687z"/></clipPath></defs><g><g><g><g><text dominant-baseline="text-before-edge" style="line-height:60px" fill="#2c2f49" font-family="'Lato','Lato-Regular'" font-size="48" font-style="none" font-weight="400" transform="translate(0 11)"><tspan style="font-kerning:normal">S</tspan><tspan style="font-kerning:normal">tart</tspan><tspan style="font-kerning:normal" fill="#fff"> Ex</tspan></text></g></g><g><path fill="#ff8a8a" d="M73.336 2.687a2360.635 2360.635 0 0 0 23.728 13.922c7.936 4.594 7.936 9.188 0 13.782a2355.012 2355.012 0 0 0-23.728 13.922C65.453 49 61.537 46.703 61.59 37.422c.053-9.281.053-18.563 0-27.844C61.537.298 65.453-2 73.336 2.687z"/></g><g clip-path="url(#ymy5a)"><g><text dominant-baseline="text-before-edge" style="line-height:60px" fill="#212126" font-family="'Lato','Lato-Regular'" font-size="48" font-style="none" font-weight="400" transform="translate(0 11)"><tspan style="font-kerning:normal">S</tspan><tspan style="font-kerning:normal">tart </tspan><tspan style="font-kerning:normal" fill="#fff">Ex</tspan></text></g></g></g></g></svg>